<mxfile host="app.diagrams.net" agent="Mozilla/5.0 (Windows NT 10.0; Win64; x64) AppleWebKit/537.36 (KHTML, like Gecko) Chrome/131.0.0.0 Safari/537.36" version="25.0.0">
  <diagram id="C5RBs43oDa-KdzZeNtuy" name="Page-1">
    <mxGraphModel dx="1221" dy="809" grid="1" gridSize="10" guides="1" tooltips="1" connect="1" arrows="1" fold="1" page="1" pageScale="1" pageWidth="827" pageHeight="1169" math="0" shadow="0">
      <root>
        <mxCell id="WIyWlLk6GJQsqaUBKTNV-0" />
        <mxCell id="WIyWlLk6GJQsqaUBKTNV-1" parent="WIyWlLk6GJQsqaUBKTNV-0" />
        <mxCell id="zkfFHV4jXpPFQw0GAbJ--0" value="ACharacter" style="swimlane;fontStyle=3;align=center;verticalAlign=top;childLayout=stackLayout;horizontal=1;startSize=26;horizontalStack=0;resizeParent=1;resizeLast=0;collapsible=1;marginBottom=0;rounded=0;shadow=0;strokeWidth=1;" parent="WIyWlLk6GJQsqaUBKTNV-1" vertex="1">
          <mxGeometry x="106" y="140" width="160" height="30" as="geometry">
            <mxRectangle x="230" y="140" width="160" height="26" as="alternateBounds" />
          </mxGeometry>
        </mxCell>
        <mxCell id="zkfFHV4jXpPFQw0GAbJ--13" value="ATD_Character" style="swimlane;fontStyle=0;align=center;verticalAlign=top;childLayout=stackLayout;horizontal=1;startSize=26;horizontalStack=0;resizeParent=1;resizeLast=0;collapsible=1;marginBottom=0;rounded=0;shadow=0;strokeWidth=1;" parent="WIyWlLk6GJQsqaUBKTNV-1" vertex="1">
          <mxGeometry x="11" y="250" width="350" height="300" as="geometry">
            <mxRectangle x="340" y="380" width="170" height="26" as="alternateBounds" />
          </mxGeometry>
        </mxCell>
        <mxCell id="zkfFHV4jXpPFQw0GAbJ--14" value="+ CameraBoom USpringArmCOmponent*&#xa;+ FollowCamera UCameraComponent*&#xa;+ DefaultMappingContext UInputMappingContext* &#xa;+ JumpAction UInputAction*&#xa;+ MoveAction UInputAction*&#xa;+ LookAction UInputAction*&#xa;+ TraceChannelProperty TEnumAsByte&lt;ECollisionChannel&gt;" style="text;align=left;verticalAlign=top;spacingLeft=4;spacingRight=4;overflow=hidden;rotatable=0;points=[[0,0.5],[1,0.5]];portConstraint=eastwest;" parent="zkfFHV4jXpPFQw0GAbJ--13" vertex="1">
          <mxGeometry y="26" width="350" height="134" as="geometry" />
        </mxCell>
        <mxCell id="zkfFHV4jXpPFQw0GAbJ--15" value="" style="line;html=1;strokeWidth=1;align=left;verticalAlign=middle;spacingTop=-1;spacingLeft=3;spacingRight=3;rotatable=0;labelPosition=right;points=[];portConstraint=eastwest;" parent="zkfFHV4jXpPFQw0GAbJ--13" vertex="1">
          <mxGeometry y="160" width="350" height="8" as="geometry" />
        </mxCell>
        <mxCell id="PW2wVgRJ4aBl7MUuCcuQ-5" value="# PushEnemy() void&lt;div&gt;+ ATower_DefenceCharacter()&lt;/div&gt;&lt;div&gt;- Move() void&lt;/div&gt;&lt;div&gt;- Look() void&lt;/div&gt;&lt;div&gt;- SetupPlayerInputComponent(InputComponent*) virtual void&lt;/div&gt;&lt;div&gt;- BeginPlay() virtual void&lt;/div&gt;&lt;div&gt;+ GetCameraBoom()&lt;/div&gt;&lt;div&gt;+ GetFollowCamera()&lt;/div&gt;" style="text;html=1;align=left;verticalAlign=top;resizable=0;points=[];autosize=1;strokeColor=none;fillColor=none;fontSize=12;spacingLeft=4;spacingRight=4;" parent="zkfFHV4jXpPFQw0GAbJ--13" vertex="1">
          <mxGeometry y="168" width="350" height="130" as="geometry" />
        </mxCell>
        <mxCell id="zkfFHV4jXpPFQw0GAbJ--16" value="" style="endArrow=block;endSize=10;endFill=0;shadow=0;strokeWidth=1;rounded=0;curved=0;edgeStyle=elbowEdgeStyle;elbow=vertical;" parent="WIyWlLk6GJQsqaUBKTNV-1" source="zkfFHV4jXpPFQw0GAbJ--13" target="zkfFHV4jXpPFQw0GAbJ--0" edge="1">
          <mxGeometry width="160" relative="1" as="geometry">
            <mxPoint x="96" y="383" as="sourcePoint" />
            <mxPoint x="196" y="281" as="targetPoint" />
          </mxGeometry>
        </mxCell>
        <mxCell id="PW2wVgRJ4aBl7MUuCcuQ-12" style="edgeStyle=none;curved=1;rounded=0;orthogonalLoop=1;jettySize=auto;html=1;exitX=0.5;exitY=0;exitDx=0;exitDy=0;entryX=0.5;entryY=1;entryDx=0;entryDy=0;fontSize=12;startSize=8;endSize=8;" parent="WIyWlLk6GJQsqaUBKTNV-1" source="PW2wVgRJ4aBl7MUuCcuQ-7" target="PW2wVgRJ4aBl7MUuCcuQ-11" edge="1">
          <mxGeometry relative="1" as="geometry" />
        </mxCell>
        <mxCell id="PW2wVgRJ4aBl7MUuCcuQ-7" value="AEnemy" style="swimlane;fontStyle=0;align=center;verticalAlign=top;childLayout=stackLayout;horizontal=1;startSize=26;horizontalStack=0;resizeParent=1;resizeLast=0;collapsible=1;marginBottom=0;rounded=0;shadow=0;strokeWidth=1;" parent="WIyWlLk6GJQsqaUBKTNV-1" vertex="1">
          <mxGeometry x="466" y="170" width="350" height="378" as="geometry">
            <mxRectangle x="340" y="380" width="170" height="26" as="alternateBounds" />
          </mxGeometry>
        </mxCell>
        <mxCell id="PW2wVgRJ4aBl7MUuCcuQ-8" value="+ CurrentNodeIndex int32&#xa;+ PathNodes TArray&lt;ATDGraphNode&gt;&#xa;+ MoveTarget AActor*&#xa;+ MoveSpeed float&#xa;+ Health int&#xa;+ MovementComponent UprojectileMovementComponent*&#xa;+ bHasReachedGoal bool&#xa;+ GraphNodeManager ATDGraphNodeManager* &#xa;+ HealthBarWidgetComponent UWidgetComponent*&#xa;+ MeshComponent USkeletalMeshComponent*&#xa;+ MovementComponent UProjectileMovementComponent*" style="text;align=left;verticalAlign=top;spacingLeft=4;spacingRight=4;overflow=hidden;rotatable=0;points=[[0,0.5],[1,0.5]];portConstraint=eastwest;" parent="PW2wVgRJ4aBl7MUuCcuQ-7" vertex="1">
          <mxGeometry y="26" width="350" height="174" as="geometry" />
        </mxCell>
        <mxCell id="PW2wVgRJ4aBl7MUuCcuQ-9" value="" style="line;html=1;strokeWidth=1;align=left;verticalAlign=middle;spacingTop=-1;spacingLeft=3;spacingRight=3;rotatable=0;labelPosition=right;points=[];portConstraint=eastwest;" parent="PW2wVgRJ4aBl7MUuCcuQ-7" vertex="1">
          <mxGeometry y="200" width="350" height="8" as="geometry" />
        </mxCell>
        <mxCell id="PW2wVgRJ4aBl7MUuCcuQ-10" value="&lt;div&gt;+ SetPath(TArrary&amp;lt;ATDGraphNode*&amp;gt;&lt;/div&gt;&lt;div&gt;+ MoveTowardsTarget(AActor*)&lt;/div&gt;&lt;div&gt;+ StartMoving() void&lt;/div&gt;&lt;div&gt;+ OnHit(UPrimitiveComponent*, AActor*,&amp;nbsp;&lt;/div&gt;&lt;div&gt;&lt;span style=&quot;white-space: pre;&quot;&gt;&#x9;&lt;/span&gt;UPrimitiveComponent, FVector, FHitResult&amp;amp;)&lt;/div&gt;&lt;div&gt;+ ApplyDamage(int) void&lt;/div&gt;&lt;div&gt;+ DestroyEnemy()&lt;/div&gt;&lt;div&gt;+ BeginPlay() virtual void&lt;/div&gt;&lt;div&gt;+ Tick(float) virtual void&lt;/div&gt;&lt;div&gt;+ AEnemy()&lt;/div&gt;" style="text;html=1;align=left;verticalAlign=top;resizable=0;points=[];autosize=1;strokeColor=none;fillColor=none;fontSize=12;spacingLeft=4;spacingRight=4;" parent="PW2wVgRJ4aBl7MUuCcuQ-7" vertex="1">
          <mxGeometry y="208" width="350" height="160" as="geometry" />
        </mxCell>
        <mxCell id="PW2wVgRJ4aBl7MUuCcuQ-11" value="&lt;b&gt;AActor&lt;/b&gt;" style="rounded=0;whiteSpace=wrap;html=1;" parent="WIyWlLk6GJQsqaUBKTNV-1" vertex="1">
          <mxGeometry x="596" y="60" width="90" height="30" as="geometry" />
        </mxCell>
        <mxCell id="bO_wPiAxexu3u1mmE3vi-8" style="edgeStyle=none;curved=1;rounded=0;orthogonalLoop=1;jettySize=auto;html=1;exitX=0.5;exitY=0;exitDx=0;exitDy=0;entryX=0.5;entryY=1;entryDx=0;entryDy=0;fontSize=12;startSize=8;endSize=8;" parent="WIyWlLk6GJQsqaUBKTNV-1" source="bO_wPiAxexu3u1mmE3vi-1" target="bO_wPiAxexu3u1mmE3vi-6" edge="1">
          <mxGeometry relative="1" as="geometry" />
        </mxCell>
        <mxCell id="bO_wPiAxexu3u1mmE3vi-1" value="UCPPNodeObject" style="swimlane;fontStyle=0;align=center;verticalAlign=top;childLayout=stackLayout;horizontal=1;startSize=26;horizontalStack=0;resizeParent=1;resizeLast=0;collapsible=1;marginBottom=0;rounded=0;shadow=0;strokeWidth=1;" parent="WIyWlLk6GJQsqaUBKTNV-1" vertex="1">
          <mxGeometry x="29" y="1570" width="310" height="120" as="geometry">
            <mxRectangle x="340" y="380" width="170" height="26" as="alternateBounds" />
          </mxGeometry>
        </mxCell>
        <mxCell id="bO_wPiAxexu3u1mmE3vi-2" value="+mData FString&#xa;+nextNode TObjectPtr&lt;UCPPNodeObject&gt;&#xa;" style="text;align=left;verticalAlign=top;spacingLeft=4;spacingRight=4;overflow=hidden;rotatable=0;points=[[0,0.5],[1,0.5]];portConstraint=eastwest;" parent="bO_wPiAxexu3u1mmE3vi-1" vertex="1">
          <mxGeometry y="26" width="310" height="44" as="geometry" />
        </mxCell>
        <mxCell id="bO_wPiAxexu3u1mmE3vi-3" value="" style="line;html=1;strokeWidth=1;align=left;verticalAlign=middle;spacingTop=-1;spacingLeft=3;spacingRight=3;rotatable=0;labelPosition=right;points=[];portConstraint=eastwest;" parent="bO_wPiAxexu3u1mmE3vi-1" vertex="1">
          <mxGeometry y="70" width="310" height="8" as="geometry" />
        </mxCell>
        <mxCell id="bO_wPiAxexu3u1mmE3vi-4" value="&lt;div&gt;+ Node (FString)&amp;nbsp;UCPPNodeObject*&lt;/div&gt;" style="text;html=1;align=left;verticalAlign=top;resizable=0;points=[];autosize=1;strokeColor=none;fillColor=none;fontSize=12;spacingLeft=4;spacingRight=4;" parent="bO_wPiAxexu3u1mmE3vi-1" vertex="1">
          <mxGeometry y="78" width="310" height="30" as="geometry" />
        </mxCell>
        <mxCell id="bO_wPiAxexu3u1mmE3vi-6" value="&lt;b&gt;UObject&lt;/b&gt;" style="rounded=0;whiteSpace=wrap;html=1;" parent="WIyWlLk6GJQsqaUBKTNV-1" vertex="1">
          <mxGeometry x="139" y="1490" width="90" height="30" as="geometry" />
        </mxCell>
        <mxCell id="bO_wPiAxexu3u1mmE3vi-9" value="&lt;&lt;Interface&gt;&gt;&#xa;ITDQueueInterface" style="swimlane;fontStyle=2;align=center;verticalAlign=top;childLayout=stackLayout;horizontal=1;startSize=40;horizontalStack=0;resizeParent=1;resizeLast=0;collapsible=1;marginBottom=0;rounded=0;shadow=0;strokeWidth=1;" parent="WIyWlLk6GJQsqaUBKTNV-1" vertex="1">
          <mxGeometry x="589" y="1215" width="190" height="80" as="geometry">
            <mxRectangle x="230" y="140" width="160" height="26" as="alternateBounds" />
          </mxGeometry>
        </mxCell>
        <mxCell id="bO_wPiAxexu3u1mmE3vi-12" value="+ Enqueue(int32) void&lt;div&gt;+ Dequeue() int&lt;/div&gt;" style="text;html=1;align=left;verticalAlign=top;resizable=0;points=[];autosize=1;strokeColor=none;fillColor=none;fontSize=12;spacingLeft=4;spacingRight=4;" parent="bO_wPiAxexu3u1mmE3vi-9" vertex="1">
          <mxGeometry y="40" width="190" height="40" as="geometry" />
        </mxCell>
        <mxCell id="bO_wPiAxexu3u1mmE3vi-20" style="edgeStyle=none;curved=1;rounded=0;orthogonalLoop=1;jettySize=auto;html=1;exitX=0.341;exitY=-0.006;exitDx=0;exitDy=0;entryX=0.5;entryY=1;entryDx=0;entryDy=0;fontSize=12;startSize=8;endSize=8;exitPerimeter=0;" parent="WIyWlLk6GJQsqaUBKTNV-1" source="bO_wPiAxexu3u1mmE3vi-14" target="bO_wPiAxexu3u1mmE3vi-19" edge="1">
          <mxGeometry relative="1" as="geometry" />
        </mxCell>
        <mxCell id="bO_wPiAxexu3u1mmE3vi-14" value="UTDQueue" style="swimlane;fontStyle=0;align=center;verticalAlign=top;childLayout=stackLayout;horizontal=1;startSize=26;horizontalStack=0;resizeParent=1;resizeLast=0;collapsible=1;marginBottom=0;rounded=0;shadow=0;strokeWidth=1;" parent="WIyWlLk6GJQsqaUBKTNV-1" vertex="1">
          <mxGeometry x="409" y="1350" width="310" height="120" as="geometry">
            <mxRectangle x="340" y="380" width="170" height="26" as="alternateBounds" />
          </mxGeometry>
        </mxCell>
        <mxCell id="bO_wPiAxexu3u1mmE3vi-15" value="+ IntContainer TArray&lt;int32&gt;" style="text;align=left;verticalAlign=top;spacingLeft=4;spacingRight=4;overflow=hidden;rotatable=0;points=[[0,0.5],[1,0.5]];portConstraint=eastwest;" parent="bO_wPiAxexu3u1mmE3vi-14" vertex="1">
          <mxGeometry y="26" width="310" height="44" as="geometry" />
        </mxCell>
        <mxCell id="bO_wPiAxexu3u1mmE3vi-16" value="" style="line;html=1;strokeWidth=1;align=left;verticalAlign=middle;spacingTop=-1;spacingLeft=3;spacingRight=3;rotatable=0;labelPosition=right;points=[];portConstraint=eastwest;" parent="bO_wPiAxexu3u1mmE3vi-14" vertex="1">
          <mxGeometry y="70" width="310" height="8" as="geometry" />
        </mxCell>
        <mxCell id="bO_wPiAxexu3u1mmE3vi-17" value="+ Enqueue_Implementation(int32) virtual void&lt;div&gt;+ Dequeue_Implementation() virtual int32&lt;/div&gt;" style="text;html=1;align=left;verticalAlign=top;resizable=0;points=[];autosize=1;strokeColor=none;fillColor=none;fontSize=12;spacingLeft=4;spacingRight=4;" parent="bO_wPiAxexu3u1mmE3vi-14" vertex="1">
          <mxGeometry y="78" width="310" height="40" as="geometry" />
        </mxCell>
        <mxCell id="bO_wPiAxexu3u1mmE3vi-18" style="edgeStyle=none;curved=1;rounded=0;orthogonalLoop=1;jettySize=auto;html=1;entryX=0.524;entryY=1.017;entryDx=0;entryDy=0;entryPerimeter=0;fontSize=12;startSize=8;endSize=8;" parent="WIyWlLk6GJQsqaUBKTNV-1" target="bO_wPiAxexu3u1mmE3vi-12" edge="1">
          <mxGeometry relative="1" as="geometry">
            <mxPoint x="689" y="1345" as="sourcePoint" />
          </mxGeometry>
        </mxCell>
        <mxCell id="bO_wPiAxexu3u1mmE3vi-19" value="&lt;b&gt;UObject&lt;/b&gt;" style="rounded=0;whiteSpace=wrap;html=1;" parent="WIyWlLk6GJQsqaUBKTNV-1" vertex="1">
          <mxGeometry x="469" y="1265" width="90" height="30" as="geometry" />
        </mxCell>
        <mxCell id="bO_wPiAxexu3u1mmE3vi-22" value="&lt;b&gt;UObject&lt;/b&gt;" style="rounded=0;whiteSpace=wrap;html=1;" parent="WIyWlLk6GJQsqaUBKTNV-1" vertex="1">
          <mxGeometry x="49" y="1270" width="90" height="30" as="geometry" />
        </mxCell>
        <mxCell id="bO_wPiAxexu3u1mmE3vi-30" style="edgeStyle=none;curved=1;rounded=0;orthogonalLoop=1;jettySize=auto;html=1;exitX=0.25;exitY=0;exitDx=0;exitDy=0;entryX=0.5;entryY=1;entryDx=0;entryDy=0;fontSize=12;startSize=8;endSize=8;" parent="WIyWlLk6GJQsqaUBKTNV-1" source="bO_wPiAxexu3u1mmE3vi-23" target="bO_wPiAxexu3u1mmE3vi-22" edge="1">
          <mxGeometry relative="1" as="geometry" />
        </mxCell>
        <mxCell id="bO_wPiAxexu3u1mmE3vi-23" value="UTDStack" style="swimlane;fontStyle=0;align=center;verticalAlign=top;childLayout=stackLayout;horizontal=1;startSize=26;horizontalStack=0;resizeParent=1;resizeLast=0;collapsible=1;marginBottom=0;rounded=0;shadow=0;strokeWidth=1;" parent="WIyWlLk6GJQsqaUBKTNV-1" vertex="1">
          <mxGeometry x="20" y="1350" width="310" height="120" as="geometry">
            <mxRectangle x="340" y="380" width="170" height="26" as="alternateBounds" />
          </mxGeometry>
        </mxCell>
        <mxCell id="bO_wPiAxexu3u1mmE3vi-24" value="+ StringContainer" style="text;align=left;verticalAlign=top;spacingLeft=4;spacingRight=4;overflow=hidden;rotatable=0;points=[[0,0.5],[1,0.5]];portConstraint=eastwest;" parent="bO_wPiAxexu3u1mmE3vi-23" vertex="1">
          <mxGeometry y="26" width="310" height="44" as="geometry" />
        </mxCell>
        <mxCell id="bO_wPiAxexu3u1mmE3vi-25" value="" style="line;html=1;strokeWidth=1;align=left;verticalAlign=middle;spacingTop=-1;spacingLeft=3;spacingRight=3;rotatable=0;labelPosition=right;points=[];portConstraint=eastwest;" parent="bO_wPiAxexu3u1mmE3vi-23" vertex="1">
          <mxGeometry y="70" width="310" height="8" as="geometry" />
        </mxCell>
        <mxCell id="bO_wPiAxexu3u1mmE3vi-26" value="+ Push_Implementation(FString) virtual void&lt;div&gt;+ Pop_Implementation() virtual FString&lt;/div&gt;" style="text;html=1;align=left;verticalAlign=top;resizable=0;points=[];autosize=1;strokeColor=none;fillColor=none;fontSize=12;spacingLeft=4;spacingRight=4;" parent="bO_wPiAxexu3u1mmE3vi-23" vertex="1">
          <mxGeometry y="78" width="310" height="40" as="geometry" />
        </mxCell>
        <mxCell id="bO_wPiAxexu3u1mmE3vi-27" value="&lt;&lt;Interface&gt;&gt;&#xa;ITDStackInterface" style="swimlane;fontStyle=2;align=center;verticalAlign=top;childLayout=stackLayout;horizontal=1;startSize=40;horizontalStack=0;resizeParent=1;resizeLast=0;collapsible=1;marginBottom=0;rounded=0;shadow=0;strokeWidth=1;" parent="WIyWlLk6GJQsqaUBKTNV-1" vertex="1">
          <mxGeometry x="200" y="1190" width="190" height="110" as="geometry">
            <mxRectangle x="230" y="140" width="160" height="26" as="alternateBounds" />
          </mxGeometry>
        </mxCell>
        <mxCell id="bO_wPiAxexu3u1mmE3vi-28" value="+ Push(FString) void&lt;div&gt;+ Pop()&amp;nbsp;&lt;/div&gt;&lt;div&gt;+ IntPush(int32) void&lt;/div&gt;&lt;div&gt;+ IntPop()&amp;nbsp;&lt;/div&gt;" style="text;html=1;align=left;verticalAlign=top;resizable=0;points=[];autosize=1;strokeColor=none;fillColor=none;fontSize=12;spacingLeft=4;spacingRight=4;" parent="bO_wPiAxexu3u1mmE3vi-27" vertex="1">
          <mxGeometry y="40" width="190" height="70" as="geometry" />
        </mxCell>
        <mxCell id="bO_wPiAxexu3u1mmE3vi-29" style="edgeStyle=none;curved=1;rounded=0;orthogonalLoop=1;jettySize=auto;html=1;exitX=0.75;exitY=0;exitDx=0;exitDy=0;entryX=0.282;entryY=1;entryDx=0;entryDy=0;entryPerimeter=0;fontSize=12;startSize=8;endSize=8;" parent="WIyWlLk6GJQsqaUBKTNV-1" source="bO_wPiAxexu3u1mmE3vi-23" target="bO_wPiAxexu3u1mmE3vi-28" edge="1">
          <mxGeometry relative="1" as="geometry" />
        </mxCell>
        <mxCell id="XAJqpwyT4UoNk6qAI_cx-5" style="edgeStyle=none;curved=1;rounded=0;orthogonalLoop=1;jettySize=auto;html=1;exitX=0.387;exitY=-0.005;exitDx=0;exitDy=0;fontSize=12;startSize=8;endSize=8;exitPerimeter=0;" parent="WIyWlLk6GJQsqaUBKTNV-1" source="XAJqpwyT4UoNk6qAI_cx-0" edge="1">
          <mxGeometry relative="1" as="geometry">
            <mxPoint x="146" y="620" as="targetPoint" />
          </mxGeometry>
        </mxCell>
        <mxCell id="XAJqpwyT4UoNk6qAI_cx-0" value="ATD_GraphNode" style="swimlane;fontStyle=0;align=center;verticalAlign=top;childLayout=stackLayout;horizontal=1;startSize=26;horizontalStack=0;resizeParent=1;resizeLast=0;collapsible=1;marginBottom=0;rounded=0;shadow=0;strokeWidth=1;" parent="WIyWlLk6GJQsqaUBKTNV-1" vertex="1">
          <mxGeometry y="670" width="380" height="168" as="geometry">
            <mxRectangle x="340" y="380" width="170" height="26" as="alternateBounds" />
          </mxGeometry>
        </mxCell>
        <mxCell id="XAJqpwyT4UoNk6qAI_cx-1" value="+ Neighbors TArray&lt;ATDGraphNode*&gt;&#xa;+ CostToNeighbors TMap&lt;ATDGraphNode*, double&gt;&#xa;+ MeshComponent UStaticMeshComponent*&#xa;&#xa;" style="text;align=left;verticalAlign=top;spacingLeft=4;spacingRight=4;overflow=hidden;rotatable=0;points=[[0,0.5],[1,0.5]];portConstraint=eastwest;" parent="XAJqpwyT4UoNk6qAI_cx-0" vertex="1">
          <mxGeometry y="26" width="380" height="44" as="geometry" />
        </mxCell>
        <mxCell id="XAJqpwyT4UoNk6qAI_cx-2" value="" style="line;html=1;strokeWidth=1;align=left;verticalAlign=middle;spacingTop=-1;spacingLeft=3;spacingRight=3;rotatable=0;labelPosition=right;points=[];portConstraint=eastwest;" parent="XAJqpwyT4UoNk6qAI_cx-0" vertex="1">
          <mxGeometry y="70" width="380" height="8" as="geometry" />
        </mxCell>
        <mxCell id="XAJqpwyT4UoNk6qAI_cx-3" value="+ AddNeighbor(ATDGraphNode*) void&lt;div&gt;+ GetCostToNeighbor(ATDGraphNode*, ATDGraphNode*) double&lt;br&gt;&lt;div&gt;+ BeginPlay() virtual void&lt;/div&gt;&lt;div&gt;+ ATDGraphNode()&amp;nbsp;&lt;/div&gt;&lt;div&gt;&lt;br&gt;&lt;/div&gt;&lt;/div&gt;" style="text;html=1;align=left;verticalAlign=top;resizable=0;points=[];autosize=1;strokeColor=none;fillColor=none;fontSize=12;spacingLeft=4;spacingRight=4;" parent="XAJqpwyT4UoNk6qAI_cx-0" vertex="1">
          <mxGeometry y="78" width="380" height="90" as="geometry" />
        </mxCell>
        <mxCell id="XAJqpwyT4UoNk6qAI_cx-4" value="&lt;b&gt;AActor&lt;/b&gt;" style="rounded=0;whiteSpace=wrap;html=1;" parent="WIyWlLk6GJQsqaUBKTNV-1" vertex="1">
          <mxGeometry x="101" y="590" width="90" height="30" as="geometry" />
        </mxCell>
        <mxCell id="XAJqpwyT4UoNk6qAI_cx-10" style="edgeStyle=none;curved=0;rounded=0;orthogonalLoop=1;jettySize=auto;html=1;exitX=0.5;exitY=0;exitDx=0;exitDy=0;entryX=1;entryY=0.5;entryDx=0;entryDy=0;fontSize=12;startSize=8;endSize=8;strokeColor=none;" parent="WIyWlLk6GJQsqaUBKTNV-1" source="XAJqpwyT4UoNk6qAI_cx-6" target="XAJqpwyT4UoNk6qAI_cx-4" edge="1">
          <mxGeometry relative="1" as="geometry">
            <Array as="points">
              <mxPoint x="520" y="800" />
              <mxPoint x="477" y="605" />
            </Array>
          </mxGeometry>
        </mxCell>
        <mxCell id="XAJqpwyT4UoNk6qAI_cx-11" style="edgeStyle=none;curved=0;rounded=0;orthogonalLoop=1;jettySize=auto;html=1;exitX=0.5;exitY=0;exitDx=0;exitDy=0;fontSize=12;startSize=8;endSize=8;entryX=1;entryY=0.25;entryDx=0;entryDy=0;" parent="WIyWlLk6GJQsqaUBKTNV-1" source="XAJqpwyT4UoNk6qAI_cx-6" target="XAJqpwyT4UoNk6qAI_cx-4" edge="1">
          <mxGeometry relative="1" as="geometry">
            <Array as="points">
              <mxPoint x="600" y="598" />
            </Array>
            <mxPoint x="200" y="600" as="targetPoint" />
          </mxGeometry>
        </mxCell>
        <mxCell id="XAJqpwyT4UoNk6qAI_cx-6" value="ATD_GraphManager" style="swimlane;fontStyle=0;align=center;verticalAlign=top;childLayout=stackLayout;horizontal=1;startSize=26;horizontalStack=0;resizeParent=1;resizeLast=0;collapsible=1;marginBottom=0;rounded=0;shadow=0;strokeWidth=1;" parent="WIyWlLk6GJQsqaUBKTNV-1" vertex="1">
          <mxGeometry x="440" y="670" width="320" height="208" as="geometry">
            <mxRectangle x="340" y="380" width="170" height="26" as="alternateBounds" />
          </mxGeometry>
        </mxCell>
        <mxCell id="XAJqpwyT4UoNk6qAI_cx-7" value="+ StoredPath TArray&lt;ATDGraphNode*&gt;&#xa;+ StartNode ATDGraphNode*&#xa;+ EndNode ATDGraphNode*&#xa;+ Enemy AEnemy*" style="text;align=left;verticalAlign=top;spacingLeft=4;spacingRight=4;overflow=hidden;rotatable=0;points=[[0,0.5],[1,0.5]];portConstraint=eastwest;" parent="XAJqpwyT4UoNk6qAI_cx-6" vertex="1">
          <mxGeometry y="26" width="320" height="84" as="geometry" />
        </mxCell>
        <mxCell id="XAJqpwyT4UoNk6qAI_cx-8" value="" style="line;html=1;strokeWidth=1;align=left;verticalAlign=middle;spacingTop=-1;spacingLeft=3;spacingRight=3;rotatable=0;labelPosition=right;points=[];portConstraint=eastwest;" parent="XAJqpwyT4UoNk6qAI_cx-6" vertex="1">
          <mxGeometry y="110" width="320" height="8" as="geometry" />
        </mxCell>
        <mxCell id="XAJqpwyT4UoNk6qAI_cx-9" value="+ BreadthFirstSearch() TArray&amp;lt;ATDGraphNode*&amp;gt;&lt;div&gt;+ Heuristic(ATDGraphNode*, ATDGraphNode*) double&lt;/div&gt;&lt;div&gt;+ AStarSearch() TArray&amp;lt;ATDGraphNode*&amp;gt;&lt;/div&gt;&lt;div&gt;+ BeginPlay() virtual void&lt;/div&gt;&lt;div&gt;+ ATDGraphNodeManager()&lt;/div&gt;" style="text;html=1;align=left;verticalAlign=top;resizable=0;points=[];autosize=1;strokeColor=none;fillColor=none;fontSize=12;spacingLeft=4;spacingRight=4;" parent="XAJqpwyT4UoNk6qAI_cx-6" vertex="1">
          <mxGeometry y="118" width="320" height="90" as="geometry" />
        </mxCell>
        <mxCell id="XAJqpwyT4UoNk6qAI_cx-12" value="" style="endArrow=none;html=1;rounded=0;fontSize=12;startSize=8;endSize=8;curved=1;entryX=0.003;entryY=0.08;entryDx=0;entryDy=0;entryPerimeter=0;exitX=0.997;exitY=0.122;exitDx=0;exitDy=0;exitPerimeter=0;" parent="WIyWlLk6GJQsqaUBKTNV-1" source="XAJqpwyT4UoNk6qAI_cx-0" target="XAJqpwyT4UoNk6qAI_cx-6" edge="1">
          <mxGeometry width="50" height="50" relative="1" as="geometry">
            <mxPoint x="360" y="660" as="sourcePoint" />
            <mxPoint x="330" y="630" as="targetPoint" />
          </mxGeometry>
        </mxCell>
        <mxCell id="XAJqpwyT4UoNk6qAI_cx-13" value="" style="endArrow=none;html=1;rounded=0;fontSize=12;startSize=8;endSize=8;curved=1;exitX=0.75;exitY=0;exitDx=0;exitDy=0;" parent="WIyWlLk6GJQsqaUBKTNV-1" edge="1" source="XAJqpwyT4UoNk6qAI_cx-6">
          <mxGeometry width="50" height="50" relative="1" as="geometry">
            <mxPoint x="680" y="693" as="sourcePoint" />
            <mxPoint x="680" y="550" as="targetPoint" />
          </mxGeometry>
        </mxCell>
        <mxCell id="XAJqpwyT4UoNk6qAI_cx-15" value="...1" style="text;html=1;align=center;verticalAlign=middle;resizable=0;points=[];autosize=1;strokeColor=none;fillColor=none;fontSize=10;" parent="WIyWlLk6GJQsqaUBKTNV-1" vertex="1">
          <mxGeometry x="670" y="540" width="40" height="30" as="geometry" />
        </mxCell>
        <mxCell id="XAJqpwyT4UoNk6qAI_cx-17" value="...1" style="text;html=1;align=center;verticalAlign=middle;resizable=0;points=[];autosize=1;strokeColor=none;fillColor=none;fontSize=10;" parent="WIyWlLk6GJQsqaUBKTNV-1" vertex="1">
          <mxGeometry x="670" y="640" width="40" height="30" as="geometry" />
        </mxCell>
        <mxCell id="mudshTYyo5GjmsjhpbmB-0" value="ATower" style="swimlane;fontStyle=0;align=center;verticalAlign=top;childLayout=stackLayout;horizontal=1;startSize=26;horizontalStack=0;resizeParent=1;resizeLast=0;collapsible=1;marginBottom=0;rounded=0;shadow=0;strokeWidth=1;" parent="WIyWlLk6GJQsqaUBKTNV-1" vertex="1">
          <mxGeometry x="260" y="891" width="350" height="258" as="geometry">
            <mxRectangle x="340" y="380" width="170" height="26" as="alternateBounds" />
          </mxGeometry>
        </mxCell>
        <mxCell id="mudshTYyo5GjmsjhpbmB-1" value="+ TowerMesh; UStaticMeshComponent* &#xa;+RangeSphere: UsphereComponenet*&#xa;+PojectileClass:TSubClassOf&lt;AProjectile&gt;&#xa;+FireRate:float&#xa;&#xa;-TimeSinceLastShot:Float&#xa;-EnemiesInRange: TArray&lt;AActor*&gt;" style="text;align=left;verticalAlign=top;spacingLeft=4;spacingRight=4;overflow=hidden;rotatable=0;points=[[0,0.5],[1,0.5]];portConstraint=eastwest;" parent="mudshTYyo5GjmsjhpbmB-0" vertex="1">
          <mxGeometry y="26" width="350" height="114" as="geometry" />
        </mxCell>
        <mxCell id="mudshTYyo5GjmsjhpbmB-2" value="" style="line;html=1;strokeWidth=1;align=left;verticalAlign=middle;spacingTop=-1;spacingLeft=3;spacingRight=3;rotatable=0;labelPosition=right;points=[];portConstraint=eastwest;" parent="mudshTYyo5GjmsjhpbmB-0" vertex="1">
          <mxGeometry y="140" width="350" height="8" as="geometry" />
        </mxCell>
        <mxCell id="mudshTYyo5GjmsjhpbmB-3" value="+ATower()&lt;br style=&quot;padding: 0px; margin: 0px;&quot;&gt;+BeginPlay() virtual void&lt;br style=&quot;padding: 0px; margin: 0px;&quot;&gt;+Tick(float) virtual void&lt;br style=&quot;padding: 0px; margin: 0px;&quot;&gt;-OnEnemyDetected(UPrimitiveComponent*, AActor*,&amp;nbsp;&lt;div&gt;&amp;nbsp;&lt;span style=&quot;white-space: pre;&quot;&gt;&#x9;&lt;/span&gt;UPrimitiveComponent, int32, bool, const FHitResult&amp;amp; )&amp;nbsp;&lt;/div&gt;&lt;div&gt;&lt;span style=&quot;white-space: pre;&quot;&gt;&#x9;&lt;/span&gt;void&lt;br style=&quot;padding: 0px; margin: 0px;&quot;&gt;-ShootProjectile(Target::AActor*): void&lt;/div&gt;" style="text;html=1;align=left;verticalAlign=top;resizable=0;points=[];autosize=1;strokeColor=none;fillColor=none;fontSize=12;spacingLeft=4;spacingRight=4;" parent="mudshTYyo5GjmsjhpbmB-0" vertex="1">
          <mxGeometry y="148" width="350" height="110" as="geometry" />
        </mxCell>
        <mxCell id="mudshTYyo5GjmsjhpbmB-4" value="" style="endArrow=classic;startArrow=classic;html=1;rounded=0;exitX=0.454;exitY=0;exitDx=0;exitDy=0;exitPerimeter=0;entryX=1;entryY=0.75;entryDx=0;entryDy=0;" parent="WIyWlLk6GJQsqaUBKTNV-1" source="mudshTYyo5GjmsjhpbmB-0" target="XAJqpwyT4UoNk6qAI_cx-4" edge="1">
          <mxGeometry width="50" height="50" relative="1" as="geometry">
            <mxPoint x="620" y="870" as="sourcePoint" />
            <mxPoint x="300" y="800" as="targetPoint" />
            <Array as="points">
              <mxPoint x="420" y="840" />
              <mxPoint x="420" y="800" />
              <mxPoint x="420" y="720" />
              <mxPoint x="420" y="613" />
            </Array>
          </mxGeometry>
        </mxCell>
      </root>
    </mxGraphModel>
  </diagram>
</mxfile>
